<?xml version="1.0" encoding="utf-8"?>
<!-- Generator: Adobe Illustrator 25.2.3, SVG Export Plug-In . SVG Version: 6.00 Build 0)  -->
<svg version="1.1" id="CTA-ver_Copy" xmlns="http://www.w3.org/2000/svg" xmlns:xlink="http://www.w3.org/1999/xlink" x="0px"
	 y="0px" viewBox="0 0 127 50" style="enable-background:new 0 0 127 50;" xml:space="preserve">
<style type="text/css">
	.st0{fill:none;}
	.st1{fill:none;stroke:#FFFFFF;stroke-linecap:square;stroke-miterlimit:10;}
	.st2{fill:#FFFFFF;}
	.st3{font-family:'Montserrat-Bold';}
	.st4{font-size:13px;}
</style>
<g id="Rectangle_3">
	<path class="st0" d="M25,0h77c13.8,0,25,11.2,25,25l0,0c0,13.8-11.2,25-25,25H25C11.2,50,0,38.8,0,25l0,0C0,11.2,11.2,0,25,0z"/>
	<path class="st1" d="M25,0.5h77c13.5,0,24.5,11,24.5,24.5l0,0c0,13.5-11,24.5-24.5,24.5H25c-13.5,0-24.5-11-24.5-24.5l0,0
		C0.5,11.5,11.5,0.5,25,0.5z"/>
</g>
<text transform="matrix(1 0 0 1 24.272 31)" class="st2 st3 st4">SUBIR GIFO</text>
</svg>
