<?xml version="1.0" encoding="utf-8"?>
<!-- Generator: Adobe Illustrator 25.2.3, SVG Export Plug-In . SVG Version: 6.00 Build 0)  -->
<svg version="1.1" id="CTA-ver_Copy" xmlns="http://www.w3.org/2000/svg" xmlns:xlink="http://www.w3.org/1999/xlink" x="0px"
	 y="0px" viewBox="0 0 127 50" style="enable-background:new 0 0 127 50;" xml:space="preserve">
<style type="text/css">
	.st0{fill:none;}
	.st1{fill:none;stroke:#FFFFFF;stroke-linecap:square;stroke-miterlimit:10;}
	.st2{enable-background:new    ;}
	.st3{fill:#FFFFFF;}
</style>
<path class="st0" d="M25,0h77c13.8,0,25,11.2,25,25l0,0c0,13.8-11.2,25-25,25H25C11.2,50,0,38.8,0,25l0,0C0,11.2,11.2,0,25,0z"/>
<path class="st1" d="M25,0.5h77c13.5,0,24.5,11,24.5,24.5l0,0c0,13.5-11,24.5-24.5,24.5H25c-13.5,0-24.5-11-24.5-24.5l0,0
	C0.5,11.5,11.5,0.5,25,0.5z"/>
<g class="st2">
	<path class="st3" d="M41.7,26.3h1.9V30c-0.5,0.4-1.1,0.7-1.7,0.9s-1.3,0.3-2,0.3c-0.9,0-1.8-0.2-2.5-0.6c-0.8-0.4-1.3-1-1.8-1.7
		c-0.4-0.7-0.6-1.5-0.6-2.4s0.2-1.7,0.6-2.4c0.4-0.7,1-1.3,1.8-1.7s1.6-0.6,2.6-0.6c0.8,0,1.5,0.1,2.2,0.4s1.2,0.7,1.6,1.2l-1.4,1.2
		c-0.7-0.7-1.4-1-2.4-1c-0.6,0-1.1,0.1-1.5,0.4c-0.5,0.2-0.8,0.6-1.1,1S37,25.9,37,26.5s0.1,1.1,0.4,1.5c0.3,0.4,0.6,0.8,1,1
		s1,0.4,1.5,0.4c0.6,0,1.2-0.1,1.6-0.4v-2.7H41.7z"/>
	<path class="st3" d="M51.4,31l-1.8-2.5h-0.1h-1.8V31h-2.1v-9.1h3.9c0.8,0,1.5,0.1,2.1,0.4s1.1,0.7,1.4,1.1c0.3,0.5,0.5,1.1,0.5,1.8
		S53.3,26.5,53,27s-0.8,0.9-1.4,1.1l2,2.9H51.4z M50.9,24c-0.3-0.3-0.8-0.4-1.4-0.4h-1.7v3.2h1.7c0.6,0,1.1-0.1,1.4-0.4
		c0.3-0.3,0.5-0.7,0.5-1.2S51.2,24.3,50.9,24z"/>
	<path class="st3" d="M61.2,29H57l-0.8,2H54l4.1-9.1h2.1l4.1,9.1H62L61.2,29z M60.5,27.5L59,24l-1.4,3.5H60.5z"/>
	<path class="st3" d="M73,27.1c0.3,0.4,0.4,0.9,0.4,1.4c0,0.8-0.3,1.4-0.9,1.8C71.9,30.8,71,31,69.8,31h-4.7v-9.1h4.4
		c1.1,0,2,0.2,2.6,0.6s0.9,1,0.9,1.7c0,0.4-0.1,0.8-0.3,1.2c-0.2,0.3-0.5,0.6-0.9,0.8C72.3,26.4,72.7,26.7,73,27.1z M67.2,23.5v2.1
		h2.1c0.5,0,0.9-0.1,1.2-0.3c0.3-0.2,0.4-0.5,0.4-0.8s-0.1-0.6-0.4-0.8c-0.3-0.2-0.7-0.3-1.2-0.3L67.2,23.5L67.2,23.5z M70.9,29.1
		c0.3-0.2,0.4-0.5,0.4-0.8c0-0.8-0.6-1.1-1.7-1.1h-2.5v2.2h2.5C70.2,29.4,70.6,29.3,70.9,29.1z"/>
	<path class="st3" d="M81.1,29h-4.2L76,31h-2.2l4.1-9.1H80l4.1,9.1h-2.2L81.1,29z M80.4,27.5L78.9,24l-1.4,3.5H80.4z"/>
	<path class="st3" d="M90.8,31L89,28.5l0,0h-1.8V31H85v-9.1h4c0.8,0,1.5,0.1,2.1,0.4s1.1,0.7,1.4,1.1s0.5,1.1,0.5,1.8
		s-0.2,1.3-0.5,1.7c-0.3,0.5-0.8,0.9-1.4,1.1l2,2.9h-2.3V31z M90.3,24c-0.3-0.3-0.8-0.4-1.4-0.4h-1.7v3.2h1.7c0.6,0,1.1-0.1,1.4-0.4
		s0.5-0.7,0.5-1.2S90.6,24.3,90.3,24z"/>
</g>
</svg>
