<?xml version="1.0" encoding="utf-8"?>
<!-- Generator: Adobe Illustrator 25.2.3, SVG Export Plug-In . SVG Version: 6.00 Build 0)  -->
<svg version="1.1" id="CTA-ver_Copy" xmlns="http://www.w3.org/2000/svg" xmlns:xlink="http://www.w3.org/1999/xlink" x="0px"
	 y="0px" viewBox="0 0 127 50" style="enable-background:new 0 0 127 50;" xml:space="preserve">
<style type="text/css">
	.st0{fill:none;}
	.st1{fill:none;stroke:#FFFFFF;stroke-linecap:square;stroke-miterlimit:10;}
	.st2{enable-background:new    ;}
	.st3{fill:#FFFFFF;}
</style>
<g id="Rectangle_3">
	<path class="st0" d="M25,0h77c13.8,0,25,11.2,25,25l0,0c0,13.8-11.2,25-25,25H25C11.2,50,0,38.8,0,25l0,0C0,11.2,11.2,0,25,0z"/>
	<path class="st1" d="M25,0.5h77c13.5,0,24.5,11,24.5,24.5l0,0c0,13.5-11,24.5-24.5,24.5H25c-13.5,0-24.5-11-24.5-24.5l0,0
		C0.5,11.5,11.5,0.5,25,0.5z"/>
</g>
<g class="st2">
	<path class="st3" d="M26.8,30.6c-0.7-0.4-1.3-1-1.8-1.7c-0.4-0.7-0.6-1.5-0.6-2.4s0.2-1.7,0.6-2.4c0.4-0.7,1-1.3,1.8-1.7
		s1.6-0.6,2.5-0.6c0.8,0,1.5,0.1,2.1,0.4s1.2,0.7,1.6,1.2l-1.4,1.2c-0.6-0.7-1.4-1.1-2.3-1.1c-0.6,0-1.1,0.1-1.5,0.4s-0.8,0.6-1,1
		s-0.4,0.9-0.4,1.5s0.1,1.1,0.4,1.5c0.2,0.4,0.6,0.8,1,1s0.9,0.4,1.5,0.4c0.9,0,1.7-0.4,2.3-1.1l1.4,1.2c-0.4,0.5-1,0.9-1.6,1.2
		C30.8,30.9,30,31,29.3,31C28.4,31.2,27.6,31,26.8,30.6z"/>
	<path class="st3" d="M36.2,30.5c-0.8-0.4-1.4-1-1.8-1.7c-0.4-0.7-0.6-1.5-0.6-2.4s0.2-1.7,0.6-2.4c0.4-0.7,1-1.3,1.8-1.7
		c0.8-0.4,1.6-0.6,2.6-0.6c0.9,0,1.8,0.2,2.5,0.6c0.8,0.4,1.3,1,1.8,1.7c0.4,0.7,0.6,1.5,0.6,2.4s-0.2,1.7-0.6,2.4
		c-0.4,0.7-1,1.3-1.8,1.7c-0.8,0.4-1.6,0.6-2.5,0.6C37.8,31.2,36.9,31,36.2,30.5z M40.2,29c0.4-0.2,0.8-0.6,1-1s0.4-0.9,0.4-1.5
		s-0.1-1.1-0.4-1.5c-0.2-0.4-0.6-0.8-1-1s-0.9-0.4-1.5-0.4c-0.5,0-1,0.1-1.5,0.4c-0.4,0.2-0.8,0.6-1,1s-0.4,0.9-0.4,1.5
		s0.1,1.1,0.4,1.5c0.2,0.4,0.6,0.8,1,1s0.9,0.4,1.5,0.4S39.8,29.2,40.2,29z"/>
	<path class="st3" d="M53.6,31v-5.5L50.9,30H50l-2.7-4.4V31h-2v-9.1H47l3.4,5.7l3.4-5.7h1.7V31C55.5,31,53.6,31,53.6,31z"/>
	<path class="st3" d="M64.8,29.3V31h-7v-9.1h6.9v1.7h-4.8v2H64v1.6h-4.2v2.1C59.8,29.3,64.8,29.3,64.8,29.3z"/>
	<path class="st3" d="M74.8,21.9V31H73l-4.5-5.5V31h-2.1v-9.1h1.7l4.5,5.5v-5.5H74.8z"/>
	<path class="st3" d="M84.3,29.3V31h-8v-1.4l5-6h-4.9v-1.7h7.7v1.4l-5,6H84.3z"/>
	<path class="st3" d="M91.7,29h-4.2l-0.8,2h-2.2l4.1-9.1h2.1l4.1,9.1h-2.2L91.7,29z M91,27.5L89.5,24l-1.4,3.5H91z"/>
	<path class="st3" d="M101.4,31l-1.8-2.5h-0.1h-1.8V31h-2.1v-9.1h3.9c0.8,0,1.5,0.1,2.1,0.4s1.1,0.7,1.4,1.1s0.5,1.1,0.5,1.8
		s-0.2,1.3-0.5,1.7c-0.3,0.5-0.8,0.9-1.4,1.1l2,2.9h-2.2V31z M100.9,24c-0.3-0.3-0.8-0.4-1.4-0.4h-1.7v3.2h1.7
		c0.6,0,1.1-0.1,1.4-0.4s0.5-0.7,0.5-1.2S101.2,24.3,100.9,24z"/>
</g>
</svg>
